<?xml version="1.0" encoding="iso-8859-1"?>
<svg id="Layer_1" data-name="Layer 1" xmlns="http://www.w3.org/2000/svg" xmlns:xlink="http://www.w3.org/1999/xlink" viewBox="0 0 223.4 84.13"><defs><style>.cls-1{fill:url(#linear-gradient);}.cls-2{fill:none;}.cls-3{fill:url(#linear-gradient-2);}.cls-4{fill:url(#linear-gradient-3);}.cls-5{fill:#3797c5;}.cls-6{fill:#4cb5e7;}.cls-7{clip-path:url(#clip-path);}.cls-8{clip-path:url(#clip-path-2);}.cls-9{clip-path:url(#clip-path-3);}.cls-10{clip-path:url(#clip-path-4);}.cls-11{fill:#fff;}</style><linearGradient id="linear-gradient" x1="171.85" y1="27.68" x2="169.53" y2="33.14" gradientUnits="userSpaceOnUse"><stop offset="0" stop-color="#4cb5e7" stop-opacity="0"/><stop offset="0.11" stop-color="#4bb3e6" stop-opacity="0.03"/><stop offset="0.27" stop-color="#47afe2" stop-opacity="0.12"/><stop offset="0.44" stop-color="#41a8dc" stop-opacity="0.27"/><stop offset="0.64" stop-color="#389ed4" stop-opacity="0.47"/><stop offset="0.84" stop-color="#2e92ca" stop-opacity="0.73"/><stop offset="0.96" stop-color="#278ac3" stop-opacity="0.9"/></linearGradient><linearGradient id="linear-gradient-2" x1="105.53" y1="22.5" x2="103.87" y2="31.08" gradientUnits="userSpaceOnUse"><stop offset="0" stop-color="#4cb5e7" stop-opacity="0"/><stop offset="0.11" stop-color="#4bb3e5" stop-opacity="0.03"/><stop offset="0.26" stop-color="#47aee0" stop-opacity="0.13"/><stop offset="0.44" stop-color="#40a5d8" stop-opacity="0.29"/><stop offset="0.63" stop-color="#3799cc" stop-opacity="0.52"/><stop offset="0.83" stop-color="#2b8abd" stop-opacity="0.8"/><stop offset="0.96" stop-color="#237fb3"/></linearGradient><linearGradient id="linear-gradient-3" x1="109.72" y1="18.4" x2="97.95" y2="35.84" gradientUnits="userSpaceOnUse"><stop offset="0.37" stop-color="#4cb5e7" stop-opacity="0"/><stop offset="0.55" stop-color="#32a5d6" stop-opacity="0.31"/><stop offset="0.76" stop-color="#1794c4" stop-opacity="0.63"/><stop offset="0.92" stop-color="#068ab9" stop-opacity="0.83"/><stop offset="1" stop-color="#0086b5" stop-opacity="0.9"/></linearGradient><clipPath id="clip-path" transform="translate(-0.5 -1.94)"><polygon class="cls-1" points="170.28 27.01 163.92 30.21 171.18 33.84 177.37 30.83 170.28 27.01"/></clipPath><clipPath id="clip-path-2" transform="translate(-0.5 -1.94)"><rect class="cls-2" x="163.34" y="26.18" width="14.94" height="8.41"/></clipPath><clipPath id="clip-path-3" transform="translate(-0.5 -1.94)"><polygon class="cls-3" points="104.4 22.28 95.82 26.5 105.1 31.32 113.53 27.29 104.4 22.28"/></clipPath><clipPath id="clip-path-4" transform="translate(-0.5 -1.94)"><rect class="cls-4" x="93.33" y="21.51" width="21.01" height="11.21"/></clipPath></defs><polygon class="cls-5" points="202.89 25.7 202.89 15.61 195.5 15.61 195.5 22.01 186.89 17.58 158.25 31.69 165.78 35.15 186.89 25.21 223.06 42.93 223.06 35.79 202.89 25.7"/><polygon class="cls-6" points="202.89 24.7 202.89 14.61 195.5 14.61 195.5 21.01 186.89 16.58 158.25 30.69 165.78 34.15 186.89 24.21 223.06 41.93 223.06 34.79 202.89 24.7"/><polygon class="cls-1" points="169.78 25.07 163.42 28.27 170.68 31.9 176.87 28.89 169.78 25.07"/><polygon class="cls-5" points="146.78 20.78 146.78 7.8 137.29 7.8 137.29 16.03 126.22 10.34 91.74 27.32 100.97 32.04 126.22 20.15 172.72 42.93 172.72 33.75 146.78 20.78"/><polygon class="cls-6" points="146.78 19.78 146.78 6.8 137.29 6.8 137.29 15.03 126.22 9.34 91.74 26.32 100.97 31.04 126.22 19.15 172.72 41.93 172.72 32.75 146.78 19.78"/><polygon class="cls-3" points="103.9 20.34 95.32 24.57 104.6 29.38 113.03 25.36 103.9 20.34"/><g class="cls-9"><rect class="cls-4" x="92.83" y="19.58" width="21.01" height="11.21"/><g class="cls-10"><rect class="cls-4" x="92.83" y="19.58" width="21.01" height="11.21"/></g></g><polygon class="cls-5" points="0.25 41.59 0.25 30.66 54.1 4.13 67.75 11.15 67.75 1 79.46 1 79.46 17 111.46 33 111.46 44.32 54.1 16.23 0.25 41.59"/><polygon class="cls-6" points="0.25 40.59 0.25 29.66 54.1 3.13 67.75 10.15 67.75 0 79.46 0 79.46 16 111.46 32 111.46 43.32 54.1 15.22 0.25 40.59"/><path class="cls-5" d="M213,65.65c.18,2,1.71,2.75,3.57,2.75,1.31,0,3.6-.28,3.51-2.08s-2.63-2-5.16-2.62-5.07-1.46-5.07-4.67c0-3.44,3.73-4.51,6.6-4.51,3.23,0,6.16,1.34,6.58,4.85h-3.62c-.31-1.65-1.68-2.11-3.21-2.11-1,0-2.86.25-2.86,1.63,0,1.7,2.56,1.94,5.12,2.52s5.09,1.5,5.09,4.61c0,3.75-3.78,5.12-7,5.12-4,0-6.93-1.76-7-5.49ZM198.64,55h2.63V50.22h3.47V55h3.14v2.59h-3.14V66c0,1.44.13,2.16,1.68,2.16a6,6,0,0,0,1.46-.12v2.69c-.76.06-1.49.18-2.25.18-3.63,0-4.31-1.4-4.36-4v-9.3h-2.63Zm-4.72,5.27a3.34,3.34,0,0,0-3.61-3c-1.79,0-4.32,1-4.32,5.74,0,2.62,1.15,5.4,4.17,5.4,2,0,3.42-1.34,3.76-3.6h3.48c-.65,4.09-3.18,6.34-7.24,6.34-4.94,0-7.66-3.5-7.66-8.14s2.6-8.48,7.79-8.48c3.66,0,6.77,1.83,7.11,5.7Zm-14.31,10.5h-3.42v-2.2h-.06a5.27,5.27,0,0,1-4.48,2.62c-4.12,0-5.89-2.07-5.89-6.19V55h3.48v9.67c0,2.78,1.13,3.78,3,3.78,2.9,0,3.87-1.86,3.87-4.3V55h3.48ZM154.2,68.4c3.11,0,4.43-2.84,4.43-5.58,0-3.48-1.68-5.56-4.37-5.56-3.26,0-4.42,2.9-4.42,5.74S151.18,68.4,154.2,68.4ZM162,70.72h-3.3V68.58h-.05a5.23,5.23,0,0,1-4.89,2.56c-5,0-7.38-3.69-7.38-8.42,0-5.7,3.39-8.2,6.83-8.2,2,0,4.19.73,5.25,2.47h.06V48.94H162Zm-21.23-7.9c0-2.72-1.37-5.56-4.49-5.56s-4.48,2.84-4.48,5.56,1.37,5.58,4.48,5.58S140.75,65.56,140.75,62.82Zm-12.45,0c0-4.82,2.9-8.3,8-8.3s8,3.48,8,8.3-2.9,8.32-8,8.32S128.3,67.67,128.3,62.82ZM118.3,55h3.26v3h.06a5.1,5.1,0,0,1,4.61-3.48,8.36,8.36,0,0,1,1.31.09V58a10.77,10.77,0,0,0-1.49-.16c-2.38,0-4.27,1.93-4.27,5.41v7.5H118.3Zm-16,4.3h5.59c1.71,0,3.81-.86,3.81-3.6S109.91,52,107.9,52h-5.65ZM98.44,48.94h9.61c6.23,0,7.42,4,7.42,6.74s-1.19,6.71-7.42,6.68h-5.8v8.36H98.44ZM77.73,55h2.62V50.22h3.48V55H87v2.59H83.83V66c0,1.44.13,2.16,1.68,2.16A6,6,0,0,0,87,68v2.69c-.76.06-1.49.18-2.25.18-3.63,0-4.3-1.4-4.37-4v-9.3H77.73ZM73,60.22a3.33,3.33,0,0,0-3.59-3c-1.81,0-4.34,1-4.34,5.74,0,2.62,1.16,5.4,4.18,5.4,2,0,3.42-1.34,3.75-3.6h3.48c-.64,4.09-3.17,6.34-7.23,6.34-4.94,0-7.66-3.5-7.66-8.14s2.6-8.48,7.78-8.48c3.66,0,6.78,1.83,7.11,5.7ZM56.23,61.44a4.06,4.06,0,1,0-8.12,0Zm-8.12,2.29c0,2.47,1.35,4.67,4.24,4.67a3.66,3.66,0,0,0,3.85-2.62h3.29c-.76,3.45-3.69,5.36-7.14,5.36-4.94,0-7.71-3.44-7.71-8.29,0-4.49,2.92-8.33,7.62-8.33,5,0,8,4.49,7.44,9.21Zm-10-14.79h3.48V70.72H38.14Zm-6.22,12.5a4.06,4.06,0,1,0-8.12,0ZM23.8,63.73c0,2.47,1.35,4.67,4.24,4.67a3.66,3.66,0,0,0,3.85-2.62h3.29c-.76,3.45-3.69,5.36-7.14,5.36-4.94,0-7.72-3.44-7.72-8.29,0-4.49,2.93-8.33,7.63-8.33,5,0,8,4.49,7.45,9.21ZM4.31,63.46c0,3.35,2.47,4.66,5.52,4.66,3.36,0,4.61-1.64,4.61-3.29a2.58,2.58,0,0,0-1.8-2.68c-1.52-.59-3.51-1-6.5-1.81-3.72-1-4.82-3.26-4.82-5.52,0-4.36,4-6.4,8-6.4,4.55,0,8.36,2.41,8.36,6.95H13.83c-.18-2.8-2.07-3.84-4.7-3.84-1.77,0-4,.64-4,2.84,0,1.52,1,2.38,2.6,2.8.33.09,5.16,1.34,6.28,1.68a5.77,5.77,0,0,1,4.24,5.55c0,4.88-4.33,6.84-8.66,6.84-5,0-9-2.38-9.09-7.78Z" transform="translate(-0.5 -1.94)"/><path class="cls-11" d="M218.75,83c0,1.24.91,1.72,2,1.72s1.7-.6,1.7-1.21a1,1,0,0,0-.66-1c-.57-.22-1.3-.37-2.4-.67a2,2,0,0,1-1.78-2c0-1.61,1.48-2.36,2.94-2.36,1.68,0,3.08.89,3.08,2.57h-1.4c-.07-1-.77-1.43-1.74-1.43-.65,0-1.47.24-1.47,1,0,.57.38.88,1,1,.12,0,1.9.49,2.31.62a2.14,2.14,0,0,1,1.57,2c0,1.8-1.6,2.52-3.2,2.52-1.84,0-3.32-.88-3.36-2.87Zm-8.17-5.36h5.79v1.21H212v2.11h4v1.15h-4v2.35h4.46v1.22h-5.87Zm-3.29,0h1.41v8h-1.41Zm-6.67,3.66h2.3c.89,0,1.38-.44,1.38-1.28,0-1-.67-1.23-1.4-1.23h-2.28Zm-1.41-3.66h3.84c1.75,0,2.66.81,2.66,2.17a2,2,0,0,1-1.33,2v0c.49.07,1.19.43,1.19,1.7a3.7,3.7,0,0,0,.44,2.12H204.5a2.3,2.3,0,0,1-.21-1.19c0-1.47-.31-2.12-1.6-2.12h-2.07v3.31h-1.41Zm-7.73,4c0,1.54.72,3.06,2.44,3.06s2.44-1.52,2.44-3.06-.72-3.07-2.44-3.07S191.48,80.08,191.48,81.62Zm6.29,0c0,2.3-1.44,4.21-3.85,4.21s-3.85-1.91-3.85-4.21,1.44-4.21,3.85-4.21S197.77,79.32,197.77,81.62Zm-14.88-4h6.52v1.21h-2.56v6.83h-1.41V78.81h-2.55Zm-5.24,4.85h2.46L178.9,79h0Zm.5-4.85h1.49l3.11,8h-1.52l-.75-2.13h-3.21l-.76,2.13h-1.45Zm-10.1,0h1.46l2,6.37h0l2.06-6.37H175l-2.75,8h-1.56Zm-5.77,3.66h2.31c.89,0,1.38-.44,1.38-1.28,0-1-.67-1.23-1.4-1.23h-2.29Zm-1.4-3.66h3.84c1.75,0,2.65.81,2.65,2.17a2,2,0,0,1-1.32,2v0c.48.07,1.19.43,1.19,1.7a3.62,3.62,0,0,0,.44,2.12h-1.51a2.21,2.21,0,0,1-.22-1.19c0-1.47-.3-2.12-1.59-2.12h-2.08v3.31h-1.4Zm-7.25,0h5.79v1.21H155v2.11h4.06v1.15H155v2.35h4.47v1.22h-5.87ZM147.1,83c0,1.24.91,1.72,2,1.72s1.7-.6,1.7-1.21a1,1,0,0,0-.67-1c-.56-.22-1.29-.37-2.4-.67a2,2,0,0,1-1.77-2c0-1.61,1.48-2.36,2.93-2.36,1.68,0,3.09.89,3.09,2.57h-1.41c-.06-1-.77-1.43-1.73-1.43-.65,0-1.48.24-1.48,1,0,.57.39.88,1,1,.12,0,1.9.49,2.32.62a2.13,2.13,0,0,1,1.56,2c0,1.8-1.6,2.52-3.2,2.52-1.83,0-3.31-.88-3.35-2.87Zm-9.27-5.36h1.49L143,83.52h0V77.6h1.34v8h-1.48l-3.66-5.91h0v5.91h-1.35Zm-7.67,4c0,1.54.72,3.06,2.44,3.06s2.45-1.52,2.45-3.06-.73-3.07-2.45-3.07S130.16,80.08,130.16,81.62Zm6.29,0c0,2.3-1.44,4.21-3.85,4.21s-3.85-1.91-3.85-4.21,1.44-4.21,3.85-4.21S136.45,79.32,136.45,81.62Zm-10.13-1.46a1.93,1.93,0,0,0-2-1.61c-1.72,0-2.44,1.53-2.44,3.07s.72,3.06,2.44,3.06a2.07,2.07,0,0,0,2.06-2.1h1.37a3.3,3.3,0,0,1-3.43,3.25c-2.41,0-3.85-1.91-3.85-4.21s1.44-4.21,3.85-4.21a3.14,3.14,0,0,1,3.42,2.75Zm-11.55-2.9h1.14v8.8h-1.14ZM105.13,83c0,1.24.91,1.72,2,1.72s1.7-.6,1.7-1.21a1,1,0,0,0-.67-1c-.56-.22-1.29-.37-2.39-.67a2,2,0,0,1-1.78-2c0-1.61,1.48-2.36,2.93-2.36,1.69,0,3.09.89,3.09,2.57h-1.4c-.07-1-.77-1.43-1.74-1.43-.65,0-1.48.24-1.48,1,0,.57.39.88,1,1,.13,0,1.9.49,2.32.62a2.14,2.14,0,0,1,1.57,2c0,1.8-1.6,2.52-3.2,2.52-1.84,0-3.32-.88-3.36-2.87Zm-7.6-1.7h2.31c.89,0,1.38-.44,1.38-1.28,0-1-.67-1.23-1.4-1.23H97.53ZM96.12,77.6H100c1.75,0,2.65.81,2.65,2.17a2,2,0,0,1-1.33,2v0c.49.07,1.2.43,1.2,1.7a3.62,3.62,0,0,0,.44,2.12h-1.51a2.21,2.21,0,0,1-.22-1.19c0-1.47-.3-2.12-1.6-2.12H97.53v3.31H96.12Zm-7.73,4c0,1.54.72,3.06,2.44,3.06s2.45-1.52,2.45-3.06-.72-3.07-2.45-3.07S88.39,80.08,88.39,81.62Zm6.3,0c0,2.3-1.44,4.21-3.86,4.21S87,83.92,87,81.62s1.43-4.21,3.84-4.21S94.69,79.32,94.69,81.62Zm-15,0c0,1.54.72,3.06,2.44,3.06s2.45-1.52,2.45-3.06-.72-3.07-2.45-3.07S79.68,80.08,79.68,81.62Zm6.29,0c0,2.3-1.44,4.21-3.85,4.21s-3.85-1.91-3.85-4.21,1.44-4.21,3.85-4.21S86,79.32,86,81.62ZM71.82,84.49h1.39c2.2,0,2.68-1.26,2.68-2.87s-.48-2.87-2.68-2.87H71.82ZM70.41,77.6h3.34c2.47,0,3.55,1.8,3.55,4s-1.08,4-3.55,4H70.41Zm-6.12-.34h1.15v8.8H64.29ZM54.65,83c0,1.24.91,1.72,2,1.72s1.7-.6,1.7-1.21a1,1,0,0,0-.66-1c-.57-.22-1.3-.37-2.4-.67a2,2,0,0,1-1.78-2c0-1.61,1.49-2.36,2.94-2.36,1.68,0,3.09.89,3.09,2.57H58.17c-.07-1-.77-1.43-1.74-1.43-.65,0-1.47.24-1.47,1,0,.57.38.88,1,1,.12,0,1.9.49,2.31.62a2.14,2.14,0,0,1,1.57,2c0,1.8-1.6,2.52-3.2,2.52-1.84,0-3.32-.88-3.36-2.87ZM42.16,77.6h1.43L45,83.75h0l1.62-6.15h1.45l1.57,6.15h0l1.49-6.15h1.43l-2.22,8H49l-1.61-6.15h0l-1.64,6.15H44.27Zm-6.95,4c0,1.54.72,3.06,2.45,3.06s2.44-1.52,2.44-3.06-.72-3.07-2.44-3.07S35.21,80.08,35.21,81.62Zm6.3,0c0,2.3-1.44,4.21-3.85,4.21s-3.86-1.91-3.86-4.21,1.45-4.21,3.86-4.21S41.51,79.32,41.51,81.62ZM27.35,84.49h1.39c2.2,0,2.68-1.26,2.68-2.87s-.48-2.87-2.68-2.87H27.35ZM26,77.6h3.33c2.48,0,3.54,1.8,3.54,4s-1.06,4-3.54,4H26Zm-8.35,0h1.49l3.67,5.92h0V77.6h1.34v8H22.64L19,79.73h0v5.91H17.6Zm-3.23,0h1.41v8H14.37ZM2.8,77.6H4.23l1.46,6.15h0L7.33,77.6H8.77l1.58,6.15h0l1.5-6.15H13.3l-2.22,8H9.65L8,79.49H8L6.37,85.64H4.92Z" transform="translate(-0.5 -1.94)"/><path class="cls-6" d="M213,64.65c.18,2,1.71,2.75,3.57,2.75,1.31,0,3.6-.28,3.51-2.08s-2.63-2-5.16-2.62-5.07-1.46-5.07-4.67c0-3.44,3.73-4.51,6.6-4.51,3.23,0,6.16,1.34,6.58,4.85h-3.62c-.31-1.65-1.68-2.11-3.21-2.11-1,0-2.86.25-2.86,1.63,0,1.7,2.56,1.94,5.12,2.52s5.09,1.5,5.09,4.61c0,3.75-3.78,5.12-7,5.12-4,0-6.93-1.76-7-5.49ZM198.64,54h2.63V49.22h3.47V54h3.14v2.59h-3.14V65c0,1.44.13,2.16,1.68,2.16a6,6,0,0,0,1.46-.12v2.69c-.76.06-1.49.18-2.25.18-3.63,0-4.31-1.4-4.36-4v-9.3h-2.63Zm-4.72,5.27a3.34,3.34,0,0,0-3.61-3c-1.79,0-4.32,1-4.32,5.74,0,2.62,1.15,5.4,4.17,5.4,2,0,3.42-1.34,3.76-3.6h3.48c-.65,4.09-3.18,6.34-7.24,6.34-4.94,0-7.66-3.5-7.66-8.14s2.6-8.48,7.79-8.48c3.66,0,6.77,1.83,7.11,5.7Zm-14.31,10.5h-3.42v-2.2h-.06a5.27,5.27,0,0,1-4.48,2.62c-4.12,0-5.89-2.07-5.89-6.19V54h3.48v9.67c0,2.78,1.13,3.78,3,3.78,2.9,0,3.87-1.86,3.87-4.3V54h3.48ZM154.2,67.4c3.11,0,4.43-2.84,4.43-5.58,0-3.48-1.68-5.56-4.37-5.56-3.26,0-4.42,2.9-4.42,5.74S151.18,67.4,154.2,67.4ZM162,69.72h-3.3V67.58h-.05a5.23,5.23,0,0,1-4.89,2.56c-5,0-7.38-3.69-7.38-8.42,0-5.7,3.39-8.2,6.83-8.2,2,0,4.19.73,5.25,2.47h.06V47.94H162Zm-21.23-7.9c0-2.72-1.37-5.56-4.49-5.56s-4.48,2.84-4.48,5.56,1.37,5.58,4.48,5.58S140.75,64.56,140.75,61.82Zm-12.45,0c0-4.82,2.9-8.3,8-8.3s8,3.48,8,8.3-2.9,8.32-8,8.32S128.3,66.67,128.3,61.82ZM118.3,54h3.26v3h.06a5.1,5.1,0,0,1,4.61-3.48,8.36,8.36,0,0,1,1.31.09V57a10.77,10.77,0,0,0-1.49-.16c-2.38,0-4.27,1.93-4.27,5.41v7.5H118.3Zm-16,4.3h5.59c1.71,0,3.81-.86,3.81-3.6S109.91,51,107.9,51h-5.65ZM98.44,47.94h9.61c6.23,0,7.42,4,7.42,6.74s-1.19,6.71-7.42,6.68h-5.8v8.36H98.44ZM77.73,54h2.62V49.22h3.48V54H87v2.59H83.83V65c0,1.44.13,2.16,1.68,2.16A6,6,0,0,0,87,67v2.69c-.76.06-1.49.18-2.25.18-3.63,0-4.3-1.4-4.37-4v-9.3H77.73ZM73,59.22a3.33,3.33,0,0,0-3.59-3c-1.81,0-4.34,1-4.34,5.74,0,2.62,1.16,5.4,4.18,5.4,2,0,3.42-1.34,3.75-3.6h3.48c-.64,4.09-3.17,6.34-7.23,6.34-4.94,0-7.66-3.5-7.66-8.14s2.6-8.48,7.78-8.48c3.66,0,6.78,1.83,7.11,5.7ZM56.23,60.44a4.06,4.06,0,1,0-8.12,0Zm-8.12,2.29c0,2.47,1.35,4.67,4.24,4.67a3.66,3.66,0,0,0,3.85-2.62h3.29c-.76,3.45-3.69,5.36-7.14,5.36-4.94,0-7.71-3.44-7.71-8.29,0-4.49,2.92-8.33,7.62-8.33,5,0,8,4.49,7.44,9.21Zm-10-14.79h3.48V69.72H38.14Zm-6.22,12.5a4.06,4.06,0,1,0-8.12,0ZM23.8,62.73c0,2.47,1.35,4.67,4.24,4.67a3.66,3.66,0,0,0,3.85-2.62h3.29c-.76,3.45-3.69,5.36-7.14,5.36-4.94,0-7.72-3.44-7.72-8.29,0-4.49,2.93-8.33,7.63-8.33,5,0,8,4.49,7.45,9.21ZM4.31,62.46c0,3.35,2.47,4.66,5.52,4.66,3.36,0,4.61-1.64,4.61-3.29a2.58,2.58,0,0,0-1.8-2.68c-1.52-.59-3.51-1-6.5-1.81-3.72-1-4.82-3.26-4.82-5.52,0-4.36,4-6.4,8-6.4,4.55,0,8.36,2.41,8.36,6.95H13.83c-.18-2.8-2.07-3.84-4.7-3.84-1.77,0-4,.64-4,2.84,0,1.52,1,2.38,2.6,2.8.33.09,5.16,1.34,6.28,1.68a5.77,5.77,0,0,1,4.24,5.55c0,4.88-4.33,6.84-8.66,6.84-5,0-9-2.38-9.09-7.78Z" transform="translate(-0.5 -1.94)"/></svg>
